<svg width="20" height="20" viewBox="0 0 20 20" fill="none" xmlns="http://www.w3.org/2000/svg">
<path d="M16.1602 5.38882C16.0664 5.01419 16.0039 4.80606 16.0039 4.80606C15.9023 4.41894 15.6445 4.41894 15.2617 4.35234L13.1875 4.07345C12.9297 4.02766 12.9297 4.02766 12.8281 3.7904C12.4883 2.97453 12.3828 2.5 12.0117 2.5H7.98828C7.61718 2.5 7.51562 2.97453 7.17578 3.79456C7.07422 4.02766 7.07422 4.02766 6.8164 4.07761L4.73828 4.35651C4.35937 4.42311 4.08593 4.46057 3.98437 4.84769C3.98437 4.84769 3.9375 5.01835 3.83984 5.38882C3.71484 5.88417 3.66406 5.83006 4.09375 5.83006H15.9062C16.3359 5.83422 16.2891 5.88417 16.1602 5.38882Z" fill="#BBA364"/>
<path d="M14.716 6.875H5.173C4.53113 6.875 4.50019 6.96259 4.53886 7.46026L5.26193 17.1191C5.3238 17.6088 5.3702 17.7083 5.9386 17.7083H13.9504C14.5188 17.7083 14.5652 17.6088 14.6271 17.1191L15.3501 7.46026C15.3888 6.95861 15.3579 6.875 14.716 6.875Z" fill="#BBA364"/>
</svg>
